<svg id="Layer_1" data-name="Layer 1" xmlns="http://www.w3.org/2000/svg" width="21.05" height="20.87" viewBox="0 0 21.05 20.87"><defs><style>.cls-1{fill:#3d4853;}</style></defs><title>dt-flip-horizontal</title><path class="cls-1" d="M281.57,1015.6a684.05,684.05,0,0,0-.15-0.27l-5.6-6.7,0,0a1,1,0,0,0-.17-0.13,1,1,0,0,0-.15-0.1l-0.18-.05a1,1,0,0,0-.2,0h0l-0.14,0a0.7,0.7,0,0,0-.39.14,0.93,0.93,0,0,0-.12.06l0,0a1,1,0,0,0-.13.17,1,1,0,0,0-.1.15,1,1,0,0,0,0,.17,1,1,0,0,0,0,.21s0,0,0,0v13.4s0,0,0,0a1,1,0,0,0,0,.21,1,1,0,0,0,0,.17,2.35,2.35,0,0,0,.23.31l0,0a1,1,0,0,0,.16.09l0.12,0.07a1,1,0,0,0,.36.07h0a1,1,0,0,0,.4-0.09l0.08-.06a1,1,0,0,0,.25-0.19l0,0,5.6-6.7a684.05,684.05,0,0,0,.15-0.27,1,1,0,0,0,.05-0.18,0.91,0.91,0,0,0,0-.38A1,1,0,0,0,281.57,1015.6Zm-5.51,4.31V1012l3.3,3.94Z" transform="translate(-274.06 -1005.54)"/><path class="cls-1" d="M295.09,1009.23a1,1,0,0,0,0-.21,1,1,0,0,0,0-.17,1,1,0,0,0-.1-0.15,1,1,0,0,0-.13-0.17l0,0a0.93,0.93,0,0,0-.12-0.06,1,1,0,0,0-.18-0.1,1,1,0,0,0-.2,0l-0.14,0h0a1,1,0,0,0-.2,0l-0.18.05a1,1,0,0,0-.14.1,1,1,0,0,0-.17.13l0,0-5.6,6.7a687.8,687.8,0,0,0-.15.27,1,1,0,0,0-.05.18,0.91,0.91,0,0,0,0,.38,0.9,0.9,0,0,0,.15.36,1,1,0,0,0,.05.1l5.6,6.7,0,0a1,1,0,0,0,.25.19l0.08,0.06a1,1,0,0,0,.4.09h0a1,1,0,0,0,.36-0.07l0.12-.07a1,1,0,0,0,.16-0.09l0,0a0.8,0.8,0,0,0,.28-0.48,1,1,0,0,0,0-.21s0,0,0,0v-13.4S295.1,1009.25,295.09,1009.23Zm-2,10.69-3.3-3.94,3.3-3.94v7.89Z" transform="translate(-274.06 -1005.54)"/><path class="cls-1" d="M284.58,1023.91a1,1,0,0,0-1,1v0.5a1,1,0,0,0,2,0v-0.5A1,1,0,0,0,284.58,1023.91Z" transform="translate(-274.06 -1005.54)"/><path class="cls-1" d="M284.58,1009.8a1,1,0,0,0-1,1v0.94a1,1,0,0,0,2,0v-0.94A1,1,0,0,0,284.58,1009.8Z" transform="translate(-274.06 -1005.54)"/><path class="cls-1" d="M284.58,1019.21a1,1,0,0,0-1,1v0.94a1,1,0,0,0,2,0v-0.94A1,1,0,0,0,284.58,1019.21Z" transform="translate(-274.06 -1005.54)"/><path class="cls-1" d="M284.58,1014.5a1,1,0,0,0-1,1v0.94a1,1,0,0,0,2,0v-0.94A1,1,0,0,0,284.58,1014.5Z" transform="translate(-274.06 -1005.54)"/><path class="cls-1" d="M284.58,1005.54a1,1,0,0,0-1,1v0.5a1,1,0,0,0,2,0v-0.5A1,1,0,0,0,284.58,1005.54Z" transform="translate(-274.06 -1005.54)"/></svg>