<svg id="Layer_1" data-name="Layer 1" xmlns="http://www.w3.org/2000/svg" width="20.87" height="21.04" viewBox="0 0 20.87 21.04"><defs><style>.cls-1{fill:#3d4853;}</style></defs><title>dt-flip-vertical</title><path class="cls-1" d="M245.88,1006.11a602.32,602.32,0,0,0-.16-0.3l0,0a1,1,0,0,0-.16-0.13,1,1,0,0,0-.15-0.1l-0.17-.05a1,1,0,0,0-.2,0H231.5a1,1,0,0,0-.2,0l-0.17.05a1,1,0,0,0-.15.1,1,1,0,0,0-.16.13l0,0a0.93,0.93,0,0,0-.21.51,0.93,0.93,0,0,0,0,.13s0,0,0,0a1,1,0,0,0,0,.21,1,1,0,0,0,0,.17,2.35,2.35,0,0,0,.23.31l0,0,6.7,5.6a1,1,0,0,0,.15.09l0.11,0.06a1,1,0,0,0,.38.08h0a1,1,0,0,0,.38-0.08l0.11-.06a1,1,0,0,0,.15-0.09l6.7-5.6,0,0a2.35,2.35,0,0,0,.23-0.31,1,1,0,0,0,0-.17,1,1,0,0,0,0-.21s0,0,0,0a0.93,0.93,0,0,0,0-.13A1,1,0,0,0,245.88,1006.11Zm-7.63,4.63-3.94-3.29h7.89Z" transform="translate(-227.81 -1005.45)"/><path class="cls-1" d="M245.89,1025.25a1,1,0,0,0,0-.17,1,1,0,0,0-.1-0.15,1,1,0,0,0-.13-0.17l0,0-6.7-5.6-0.1-.05-0.18-.1-0.18-.05-0.19,0-0.19,0-0.18.05-0.18.1-0.1.05-6.7,5.6,0,0a1,1,0,0,0-.13.17,1,1,0,0,0-.1.15,1,1,0,0,0,0,.17,1,1,0,0,0,0,.21s0,0,0,0a0.93,0.93,0,0,0,0,.13,0.7,0.7,0,0,0,.14.39,0.94,0.94,0,0,0,.07.12l0,0a1,1,0,0,0,.24.19l0.09,0.06a1,1,0,0,0,.4.09h13.4a1,1,0,0,0,.4-0.09l0.09-.06a1,1,0,0,0,.24-0.19l0,0a0.94,0.94,0,0,0,.07-0.12,0.7,0.7,0,0,0,.14-0.39,0.93,0.93,0,0,0,0-.13s0,0,0,0A1,1,0,0,0,245.89,1025.25Zm-11.59-.75,3.94-3.29,3.94,3.29H234.3Z" transform="translate(-227.81 -1005.45)"/><path class="cls-1" d="M229.31,1015h-0.5a1,1,0,0,0,0,2h0.5A1,1,0,1,0,229.31,1015Z" transform="translate(-227.81 -1005.45)"/><path class="cls-1" d="M243.42,1017a1,1,0,1,0,0-2h-0.94a1,1,0,0,0,0,2h0.94Z" transform="translate(-227.81 -1005.45)"/><path class="cls-1" d="M234,1017a1,1,0,0,0,0-2h-0.94a1,1,0,0,0,0,2H234Z" transform="translate(-227.81 -1005.45)"/><path class="cls-1" d="M238.71,1017a1,1,0,0,0,0-2h-0.94a1,1,0,0,0,0,2h0.94Z" transform="translate(-227.81 -1005.45)"/><path class="cls-1" d="M247.68,1015h-0.5a1,1,0,0,0,0,2h0.5A1,1,0,1,0,247.68,1015Z" transform="translate(-227.81 -1005.45)"/></svg>