<svg width="12" height="30" viewBox="0 0 12 30" fill="none" xmlns="http://www.w3.org/2000/svg">
<g clip-path="url(#clip0)">
<path d="M6.46824 27.3335L11.8083 21.9934C11.9319 21.8699 12 21.705 12 21.5292C12 21.3534 11.9319 21.1885 11.8083 21.065L11.4151 20.6717C11.1589 20.4158 10.7425 20.4158 10.4867 20.6717L6.00249 25.156L1.51326 20.6667C1.38965 20.5432 1.22487 20.475 1.04916 20.475C0.873261 20.475 0.708482 20.5432 0.584775 20.6667L0.191706 21.06C0.0680971 21.1836 -3.81757e-08 21.3484 -4.58603e-08 21.5242C-5.3545e-08 21.7 0.0680971 21.8649 0.191706 21.9884L5.53664 27.3335C5.66064 27.4573 5.8262 27.5253 6.00219 27.5249C6.17888 27.5253 6.34434 27.4573 6.46824 27.3335Z" fill="#C0CCDA"/>
</g>
<g clip-path="url(#clip1)">
<path d="M5.53176 2.66648L0.191706 8.00663C0.068097 8.13015 1.46669e-08 8.29502 1.25705e-08 8.47083C1.0474e-08 8.64663 0.068097 8.81151 0.191706 8.93502L0.584873 9.32828C0.841066 9.58418 1.25745 9.58418 1.51326 9.32828L5.99751 4.84403L10.4867 9.33326C10.6104 9.45677 10.7751 9.52496 10.9508 9.52496C11.1267 9.52496 11.2915 9.45677 11.4152 9.33326L11.8083 8.93999C11.9319 8.81638 12 8.6516 12 8.4758C12 8.3 11.9319 8.13512 11.8083 8.01161L6.46336 2.66648C6.33936 2.54268 6.1738 2.47468 5.99781 2.47507C5.82112 2.47468 5.65566 2.54268 5.53176 2.66648Z" fill="#C0CCDA"/>
</g>
<defs>
<clipPath id="clip0">
<rect width="12" height="12" fill="white" transform="translate(12 18) rotate(90)"/>
</clipPath>
<clipPath id="clip1">
<rect width="12" height="12" fill="white" transform="translate(0 12) rotate(-90)"/>
</clipPath>
</defs>
</svg>
