<svg width="60" height="60" viewBox="0 0 60 60" fill="none" xmlns="http://www.w3.org/2000/svg">
<path d="M18.513 50.5174C18.8925 50.5174 19.2427 50.2695 19.3554 49.887L22.5984 38.8931C22.7357 38.4276 22.4696 37.9388 22.0042 37.8015C21.5379 37.6639 21.0498 37.9303 20.9127 38.3956L17.6698 49.3896C17.5325 49.855 17.7986 50.3438 18.2639 50.481C18.3472 50.5058 18.4307 50.5174 18.513 50.5174Z" fill="#3C4858"/>
<path d="M47.7746 48.452L39.658 23.9241L40.5361 20.5757C42.1635 14.3713 41.9648 7.87066 39.9622 1.77691C39.6129 0.714141 38.6264 0 37.5076 0H35.5132C34.2228 0 33.1197 0.921562 32.8903 2.19129L32.4117 4.83973C32.2008 6.00715 31.1866 6.85441 30.0002 6.85441C28.8138 6.85441 27.7997 6.00715 27.5887 4.83973L27.1101 2.19129C26.8804 0.921562 25.7775 0 24.487 0H22.4926C21.3738 0 20.3873 0.714141 20.038 1.77703C18.0353 7.8709 17.8367 14.3713 19.464 20.5758L20.3422 23.9242L18.3457 29.9576L18.3453 29.9586L14.5448 41.4436C14.3922 41.9044 14.6422 42.4016 15.103 42.5541C15.5638 42.7064 16.061 42.4567 16.2135 41.9959L19.8195 31.0986H33.7584C34.2438 31.0986 34.6372 30.7052 34.6372 30.2198C34.6372 29.7345 34.2439 29.3411 33.7584 29.3411H20.4012L21.8932 24.8321H26.3148C26.3157 24.8321 26.3167 24.8324 26.3175 24.8324C26.3187 24.8324 26.3199 24.8321 26.3211 24.8321H34.16C34.1608 24.8321 34.1618 24.8323 34.1626 24.8323C34.1634 24.8323 34.1644 24.8321 34.1652 24.8321H38.1075L39.5995 29.3411H38.0476C37.5622 29.3411 37.1688 29.7345 37.1688 30.2198C37.1688 30.7052 37.5621 31.0986 38.0476 31.0986H40.1811L46.1062 49.0043C46.5476 50.3379 46.4129 51.7475 45.727 52.9736C45.0411 54.1996 43.91 55.0518 42.5424 55.3734C41.1597 55.6987 39.749 55.9721 38.3322 56.1901C38.3331 56.0242 38.3191 55.8565 38.2853 55.6888L34.0496 34.7005C33.9538 34.2248 33.4904 33.9165 33.0144 34.013C32.5386 34.1089 32.2308 34.5724 32.3269 35.0482L36.5624 56.0365C36.6269 56.3565 36.4667 56.6791 36.1727 56.8212C32.25 58.715 27.7502 58.715 23.8276 56.8212C23.5335 56.6791 23.3734 56.3565 23.4379 56.0365L27.6735 35.0482C27.7694 34.5727 27.4616 34.1089 26.9859 34.013C26.5101 33.9165 26.0467 34.2247 25.9507 34.7005L21.7151 55.6888C21.6812 55.8565 21.6672 56.0242 21.6681 56.1901C20.2514 55.9721 18.8406 55.6986 17.4579 55.3734C16.0903 55.0519 14.9593 54.1996 14.2733 52.9736C13.5874 51.7477 13.4526 50.338 13.894 49.0043L14.8362 46.1571C14.9887 45.6963 14.7388 45.1991 14.278 45.0469C13.8171 44.8944 13.32 45.1443 13.1675 45.605L12.2253 48.4522C11.6359 50.2336 11.8233 52.1944 12.7394 53.8318C13.6556 55.4694 15.2287 56.6548 17.0553 57.0844C18.8658 57.5101 20.7226 57.8491 22.5793 58.0949C22.726 58.2141 22.8872 58.3189 23.0632 58.4039C25.2672 59.4679 27.6336 60 29.9999 60C32.3661 60 34.7325 59.4678 36.9365 58.4037C37.1127 58.3186 37.2738 58.2138 37.4204 58.0946C39.2771 57.8488 41.1341 57.51 42.9445 57.0841C44.7711 56.6547 46.3441 55.4692 47.2603 53.8316C48.1768 52.1943 48.3642 50.2335 47.7746 48.452ZM34.1413 5.15238L34.6199 2.50406C34.698 2.07164 35.0736 1.7577 35.5132 1.7577H37.5076C37.8655 1.7577 38.1808 1.98609 38.2925 2.32594C38.6188 3.31852 38.8931 4.3227 39.1182 5.33473H34.1041C34.1177 5.27437 34.1301 5.21355 34.1413 5.15238ZM21.7077 2.32582C21.8194 1.98598 22.1348 1.75758 22.4926 1.75758H24.487C24.9265 1.75758 25.3022 2.07152 25.3803 2.50395L25.8589 5.15227C25.8699 5.21355 25.8825 5.27426 25.8961 5.33449H20.882C21.107 4.32246 21.3814 3.3184 21.7077 2.32582ZM38.836 20.13L38.0639 23.0742H35.2142L35.4909 21.5531C35.5778 21.0757 35.261 20.6182 34.7836 20.5312C34.3057 20.4439 33.8484 20.7612 33.7617 21.2386L33.4278 23.0742H26.9968L26.3362 20.5417C26.2138 20.072 25.7337 19.7903 25.2642 19.9132C24.7945 20.0357 24.5131 20.5157 24.6357 20.9852L25.1806 23.0742H21.9363L21.1642 20.13C20.0408 15.847 19.8372 11.4152 20.5433 7.09207H26.7623C27.5401 8.02852 28.7107 8.61211 30.0003 8.61211C31.2899 8.61211 32.4606 8.02863 33.2383 7.09207H39.4574C40.1631 11.4152 39.9595 15.847 38.836 20.13Z" fill="#3C4858"/>
<path d="M40.1932 44.7123C40.2747 44.7123 40.3579 44.7008 40.4402 44.6766C40.906 44.5403 41.1732 44.0524 41.0369 43.5864L38.5936 35.2335C38.4574 34.7677 37.9694 34.5002 37.5034 34.6368C37.0377 34.7731 36.7704 35.2611 36.9067 35.7269L39.35 44.0798C39.4623 44.4636 39.8129 44.7123 40.1932 44.7123Z" fill="#3C4858"/>
</svg>
