<svg width="60" height="60" viewBox="0 0 60 60" fill="none" xmlns="http://www.w3.org/2000/svg">
<path d="M52.5072 49.8541L49.6172 17.7327C49.4227 15.163 47.9503 12.9028 45.678 11.6866L43.1478 10.3319C43.1323 9.56813 43.0319 7.41259 42.4161 4.88705C42.4148 4.88079 42.4134 4.8744 42.412 4.86813H42.4119C42.4078 4.84883 42.4029 4.82939 42.3972 4.81047C42.2334 4.20306 41.8363 3.6721 41.217 3.23204C38.6408 1.40252 35.9143 0.593229 33.787 0.245351C31.7887 -0.0815599 28.2115 -0.0815599 26.2131 0.245351C24.0859 0.593357 21.3595 1.40252 18.7836 3.23191C18.1715 3.6666 17.7766 4.19027 17.6092 4.78886C17.5981 4.82159 17.5896 4.85496 17.5838 4.88897C16.9684 7.41336 16.8681 9.56788 16.8526 10.3318L14.323 11.6866C12.0512 12.9024 10.5782 15.1626 10.3833 17.7236L7.49286 49.8628C7.42689 50.7267 7.58746 51.5989 7.95708 52.3855L8.40008 53.327L8.2822 55.8031C8.26737 56.114 8.47858 56.3904 8.78235 56.4577L12.401 57.2594C12.5691 57.2964 12.7454 57.2644 12.8898 57.1699C13.034 57.0753 13.1338 56.9266 13.1668 56.7572L13.6526 54.2587C14.0047 53.8783 14.2944 53.4467 14.5147 52.9742C14.7628 52.4445 14.915 51.8794 14.9671 51.2946L16.4626 37.7201C16.495 42.5153 16.4698 47.9032 16.2627 51.297C16.1934 52.4321 16.7077 53.4938 17.5662 54.1604V58.0667C17.5662 58.366 17.7739 58.6252 18.066 58.6906C21.9699 59.5633 25.9851 59.9996 30.0002 59.9996C34.0154 59.9996 38.0303 59.5633 41.9335 58.6906C42.2256 58.6252 42.4332 58.366 42.4332 58.0667V54.1609C43.2919 53.4941 43.8063 52.4325 43.7369 51.2974C43.5297 47.9028 43.5045 42.5121 43.5369 37.7161L45.0337 51.2946C45.1325 52.4005 45.5966 53.445 46.3468 54.2584L46.8329 56.7577C46.8659 56.9269 46.9657 57.0757 47.11 57.1703C47.2149 57.2391 47.3369 57.2749 47.4604 57.2749C47.5065 57.2749 47.553 57.2699 47.5987 57.2598L51.2174 56.4581C51.5211 56.3908 51.7324 56.1144 51.7175 55.8035L51.5996 53.3274L52.0424 52.3864C52.4117 51.6031 52.5728 50.7308 52.5072 49.8541ZM41.6523 7.73976C41.8121 8.92185 41.8559 9.85221 41.8676 10.3066C39.6181 11.9968 36.6268 13.1456 34.1972 13.8722C34.9749 13.3922 35.8049 12.8567 36.6234 12.2877C39.0687 10.588 40.7387 9.08013 41.6523 7.73976ZM24.1069 11.238C22.3586 10.0228 21.0078 8.88542 20.1055 7.88653C22.5236 6.33699 25.0638 5.69902 26.9572 5.44448C28.7166 5.20795 31.2937 5.20412 33.0679 5.44435C34.9565 5.70018 37.4829 6.33955 39.8953 7.88627C38.9946 8.8835 37.6468 10.0187 35.9028 11.2316C33.4339 12.9486 30.8529 14.3581 30.0001 14.8117C29.1488 14.3588 26.575 12.9535 24.1069 11.238ZM18.83 5.17484C18.8311 5.17062 18.8321 5.16653 18.8328 5.16218C18.8328 5.16218 18.833 5.1618 18.833 5.16155C18.8335 5.15937 18.834 5.15733 18.8344 5.15515C18.8348 5.15375 18.8351 5.15247 18.8355 5.15119C18.9184 4.83463 19.1499 4.53969 19.5239 4.27414C21.6962 2.73151 24.0201 1.97464 25.9207 1.60887C28.2291 1.16472 31.7782 1.1605 34.097 1.60887C35.9919 1.97528 38.3062 2.73279 40.4766 4.27414C40.8506 4.53969 41.0821 4.83489 41.165 5.15119C41.1653 5.15247 41.1657 5.15387 41.1661 5.15515C41.1675 5.1618 41.1689 5.16845 41.1706 5.17484C41.1706 5.17523 41.1707 5.17561 41.1708 5.17599C41.2828 5.63676 41.1128 6.21157 40.6854 6.87473C37.9805 5.10977 35.1678 4.41286 33.0982 4.14987C31.4558 3.94122 28.5454 3.94122 26.9039 4.14974C24.8344 4.4126 22.021 5.10951 19.3155 6.87498C18.8874 6.21132 18.7174 5.63587 18.83 5.17484ZM18.3477 7.73912C19.2613 9.07962 20.9315 10.5879 23.3773 12.2877C24.1966 12.8573 25.0278 13.3935 25.8064 13.874C23.3771 13.148 20.3851 11.9991 18.1327 10.3063C18.1441 9.85234 18.1875 8.923 18.3477 7.73912ZM9.58486 55.3261L9.6498 53.9623L12.3109 54.4613L12.037 55.8694L9.58486 55.3261ZM18.8447 57.5525V54.7772C26.1446 56.6908 33.8552 56.6908 41.1547 54.7772V57.5525C33.8461 59.1113 26.1547 59.1113 18.8447 57.5525ZM47.9626 55.8694L47.6887 54.4613L50.3499 53.9623L50.4149 55.3261L47.9626 55.8694ZM50.8857 51.8413L50.5142 52.6308L47.1691 53.258C46.6774 52.6713 46.3741 51.9432 46.3065 51.1755C46.3062 51.1709 46.3057 51.1661 46.3051 51.1615L43.6841 27.3823C43.6473 27.0478 43.3535 26.7984 43.0213 26.8137C42.6852 26.8281 42.4178 27.1005 42.4097 27.4369C42.4056 27.6022 42.0139 44.0577 42.4608 51.3754C42.5213 52.3648 41.868 53.2672 40.9077 53.5209C33.7717 55.4059 26.2278 55.4059 19.0916 53.5209C18.1312 53.2672 17.4782 52.3648 17.5388 51.3754C17.9855 44.0577 17.594 27.6022 17.5899 27.4369C17.5817 27.1005 17.3143 26.8281 16.9781 26.8137C16.6391 26.7987 16.3522 27.0478 16.3154 27.3823L13.6955 51.1615C13.695 51.1663 13.6944 51.171 13.6941 51.1757C13.6556 51.6136 13.5422 52.0363 13.3562 52.4332C13.2168 52.7323 13.0408 53.0086 12.831 53.2583L9.48526 52.6309L9.11399 51.8418C8.83822 51.2548 8.71842 50.6042 8.76675 49.9689L11.6573 17.8295C11.8198 15.6974 13.0418 13.8223 14.9265 12.8137L17.5051 11.4323C19.4528 12.8626 22.0703 14.0815 25.2967 15.0586C25.4177 15.0953 25.537 15.1306 25.6553 15.1653V33.0983C25.6553 33.4514 25.9414 33.7376 26.2945 33.7376C26.6476 33.7376 26.9338 33.4514 26.9338 33.0983V15.5181C28.5872 15.9464 29.7479 16.1405 29.8876 16.1632C29.9242 16.1698 29.9618 16.1731 29.9997 16.1731C30 16.1731 30.0002 16.1731 30.0005 16.1731C30.0386 16.1731 30.0761 16.1698 30.1126 16.1632C30.2526 16.1405 31.4131 15.9463 33.0666 15.5181V33.0984C33.0666 33.4516 33.3527 33.7377 33.7058 33.7377C34.059 33.7377 34.3451 33.4516 34.3451 33.0984V15.1654C34.4633 15.1307 34.5826 15.0954 34.7037 15.0588C37.9298 14.0816 40.5472 12.8628 42.4948 11.4327L45.0746 12.8138C46.9595 13.8228 48.1811 15.6976 48.3431 17.8383L51.233 49.9591C51.2814 50.6063 51.1614 51.2569 50.8857 51.8413Z" fill="#3C4858"/>
</svg>
