<svg width="26" height="26" viewBox="0 0 26 26" fill="none" xmlns="http://www.w3.org/2000/svg">
<g clip-path="url(#clip0)">
<path d="M18.2737 1.25996C17.8268 1.21527 17.4161 1.51882 17.3363 1.96082C16.9649 4.01834 15.1644 5.57975 13 5.57975C10.8356 5.57975 9.03512 4.01834 8.66376 1.96077C8.58397 1.51877 8.17339 1.21527 7.72646 1.2599L1.21378 1.91099C0.770754 1.95529 0.43335 2.32807 0.43335 2.77332V8.14015C0.43335 8.61882 0.821345 9.00682 1.30002 9.00682H4.38102C4.85969 9.00682 5.24768 9.39482 5.24768 9.87349V20.9809C5.24768 21.4596 5.63568 21.8476 6.11435 21.8476H19.8857C20.3644 21.8476 20.7523 21.4596 20.7523 20.9809V9.87349C20.7523 9.39482 21.1403 9.00682 21.619 9.00682C21.6932 9.00682 24.7981 9.00682 24.7 9.00682C25.1787 9.00682 25.5667 8.61882 25.5667 8.14015V2.77337C25.5667 2.32812 25.2293 1.95529 24.7863 1.91099L18.2737 1.25996Z" fill="#FF99AF"/>
<path d="M25.5667 2.77331V5.07269C24.0825 5.13119 17.8945 5.5434 12.7833 10.5625C8.29402 14.9706 7.40406 20.2139 7.19172 21.8476H6.11435C5.63552 21.8476 5.24768 21.4597 5.24768 20.9809V9.87348C5.24768 9.39465 4.85985 9.00681 4.38102 9.00681H1.30002C0.821183 9.00681 0.43335 8.61898 0.43335 8.14015V2.77331C0.43335 2.32806 0.770808 1.9554 1.21389 1.91098L7.72635 1.2599C8.17322 1.21494 8.58381 1.51881 8.66397 1.96081C9.03502 4.01806 10.8355 5.57969 13 5.57969C15.1645 5.57969 16.965 4.01806 17.3361 1.96081C17.4162 1.51881 17.8268 1.21548 18.2737 1.2599L24.7861 1.91098C25.2292 1.9554 25.5667 2.32806 25.5667 2.77331Z" fill="#FFA4B8"/>
<path d="M26 1.989V9.00678C26 9.24609 25.806 9.44012 25.5667 9.44012C25.3274 9.44012 25.1333 9.24609 25.1333 9.00678V1.989C25.1333 1.74969 25.3274 1.55567 25.5667 1.55567C25.806 1.55567 26 1.74969 26 1.989ZM13 6.01283C15.5079 6.01283 17.5764 4.09538 17.8166 1.64949L20.5061 1.91848C20.744 1.94204 20.9566 1.76854 20.9804 1.53037C21.0042 1.29226 20.8305 1.07992 20.5923 1.05609L17.4495 0.741815C17.1937 0.716465 16.9731 0.917478 16.9731 1.17298C16.9731 3.36381 15.1907 5.14616 12.9999 5.14616C10.8091 5.14616 9.02671 3.36381 9.02671 1.17298C9.02671 0.933674 8.83269 0.739649 8.59338 0.739649C8.35407 0.739649 8.16005 0.933674 8.16005 1.17298C8.16015 3.84167 10.3313 6.01283 13 6.01283ZM4.8145 21.8478C4.8145 22.0871 5.00852 22.2811 5.24783 22.2811H20.7521C20.9914 22.2811 21.1854 22.0871 21.1854 21.8478V9.00678C21.1854 8.76747 20.9914 8.57345 20.7521 8.57345C20.5128 8.57345 20.3188 8.76747 20.3188 9.00678V21.4145H5.68116V9.00678C5.68116 8.76747 5.48714 8.57345 5.24783 8.57345H0.866667V2.38117L5.77899 1.88999C6.0171 1.86615 6.19087 1.65382 6.16709 1.4157C6.14326 1.17759 5.93076 1.00387 5.69281 1.0276L0.390217 1.55784C0.168675 1.57999 0 1.76638 0 1.989V9.00678C0 9.24609 0.194025 9.44012 0.433333 9.44012H4.8145V21.8478ZM25.4938 24.5471C25.4538 24.4151 25.4542 24.4351 24.6273 23.6082C24.458 23.4389 24.1837 23.4389 24.0145 23.6082C23.8599 23.7628 23.8243 24.0309 24.033 24.2396H4.17083C3.93152 24.2396 3.7375 24.4336 3.7375 24.6729C3.7375 24.9122 3.93152 25.1063 4.17083 25.1063H24.033C23.8276 25.3117 23.8569 25.5801 24.0145 25.7377C24.1837 25.9069 24.458 25.9069 24.6273 25.7377C25.1284 25.2365 25.3928 24.976 25.4252 24.933C25.5083 24.8224 25.5338 24.6794 25.4938 24.5471ZM2.52725 23.6082C2.35804 23.4389 2.08368 23.4389 1.91447 23.6082L1.15613 24.3665C0.986862 24.5357 0.986862 24.8101 1.15613 24.9793L1.91447 25.7376C1.99908 25.8222 2.10995 25.8645 2.22089 25.8645C2.60341 25.8645 2.80112 25.3986 2.52731 25.1248L2.0754 24.6729L2.52731 24.221C2.69647 24.0517 2.69647 23.7774 2.52725 23.6082ZM22.9125 1.61487V19.0938C22.9125 19.3331 23.1065 19.5271 23.3458 19.5271C23.5851 19.5271 23.7792 19.3331 23.7792 19.0938V1.61487C23.8696 1.70528 23.9681 1.76042 24.1042 1.76042C24.4867 1.76042 24.6844 1.29448 24.4106 1.02067C24.3852 0.995261 23.6482 0.256319 23.6204 0.233569C23.5331 0.161744 23.4183 0.126211 23.3033 0.137586C23.1065 0.156707 23.0907 0.211199 22.2811 1.02067C22.1119 1.18988 22.1119 1.46424 22.2811 1.63345C22.4357 1.78804 22.7038 1.82352 22.9125 1.61487ZM23.0394 22.1085C23.2087 22.2777 23.483 22.2777 23.6522 22.1085L24.4105 21.3501C24.5798 21.1809 24.5798 20.9065 24.4105 20.7373C24.2413 20.5681 23.967 20.5681 23.7977 20.7373L23.3458 21.1892L22.8939 20.7373C22.7247 20.5681 22.4503 20.5681 22.2811 20.7373C22.1119 20.9065 22.1119 21.1808 22.2811 21.3501L23.0394 22.1085Z" fill="#1C2D41"/>
</g>
<defs>
<clipPath id="clip0">
<rect width="26" height="26" fill="white"/>
</clipPath>
</defs>
</svg>
