<svg width="60" height="60" viewBox="0 0 60 60" fill="none" xmlns="http://www.w3.org/2000/svg">
<g clip-path="url(#clip0)">
<path d="M57.4412 24.0116L49.3492 7.68623C49.1785 7.34201 48.9171 7.05073 48.5933 6.84394L38.8848 0.646762C37.7346 -0.0875177 36.2488 -0.102525 35.0997 0.608476C32.0111 2.51921 28.7026 2.46155 24.9852 0.431701C23.8561 -0.184886 22.4739 -0.138329 21.378 0.553293L19.7035 1.61005C19.7015 1.61123 19.6997 1.61253 19.6977 1.61371L11.4144 6.84111C11.0863 7.04825 10.8217 7.34154 10.6494 7.68918L2.55876 24.0116C2.21419 24.7066 2.47202 25.5526 3.14545 25.9375L11.9764 30.9837V58.5825C11.9764 59.3641 12.6123 59.9999 13.3938 59.9999H46.6062C47.3877 59.9999 48.0236 59.3641 48.0236 58.5825V49.1213C48.0236 48.6318 47.6268 48.235 47.1373 48.235C46.6479 48.235 46.2511 48.6318 46.2511 49.1213V58.2274H13.7489V19.94C13.7489 19.4505 13.3521 19.0537 12.8627 19.0537C12.3732 19.0537 11.9764 19.4505 11.9764 19.94V28.9423L4.27452 24.5412L12.2376 8.47628C12.2652 8.42039 12.3078 8.37324 12.3605 8.34004L19.5604 3.79622C19.9663 5.26277 20.6807 6.63586 21.665 7.82188C21.8403 8.03316 22.0929 8.14211 22.3474 8.14211C22.5469 8.14211 22.7475 8.07523 22.913 7.9378C23.2897 7.62514 23.3416 7.06645 23.029 6.68986C22.089 5.55712 21.4425 4.22185 21.1398 2.7995L22.3238 2.05222C22.3607 2.02894 22.3984 2.00732 22.4364 1.98699C22.6688 3.64852 23.4369 5.18148 24.6537 6.37341C26.0901 7.78064 27.9889 8.55569 30.0001 8.55569C31.9948 8.55569 33.8824 7.79151 35.315 6.40401C36.5541 5.20393 37.3374 3.64934 37.5681 1.96336C37.6938 2.00838 37.8159 2.06711 37.9312 2.14073L38.8712 2.74077C38.0156 6.90114 34.2983 9.97355 30.0001 9.97355C28.427 9.97355 26.8746 9.55997 25.5106 8.77772C25.0859 8.53418 24.5444 8.68094 24.3009 9.10551C24.0574 9.53008 24.2043 10.0717 24.6287 10.3152C26.2608 11.2512 28.1182 11.7459 30.0001 11.7459C34.9118 11.7459 39.1891 8.38967 40.4515 3.74943L47.6395 8.33767C47.6915 8.37099 47.7336 8.41779 47.761 8.47309L55.7255 24.541L48.0236 28.942V19.9397C48.0236 19.4503 47.6268 19.0535 47.1373 19.0535C46.6479 19.0535 46.2511 19.4503 46.2511 19.9397V45.5763C46.2511 46.0657 46.6479 46.4625 47.1373 46.4625C47.6268 46.4625 48.0236 46.0657 48.0236 45.5763V30.9837L56.8546 25.9375C57.528 25.5526 57.7858 24.7066 57.4412 24.0116ZM29.9999 6.78321C28.4554 6.78321 26.9971 6.18801 25.8939 5.10727C25.0344 4.2651 24.4665 3.20162 24.2419 2.04359C28.3394 4.24667 32.1923 4.33754 35.7015 2.31301C35.0788 4.89705 32.7689 6.78321 29.9999 6.78321Z" fill="#3C4858"/>
</g>
<defs>
<clipPath id="clip0">
<rect width="60" height="60" fill="white"/>
</clipPath>
</defs>
</svg>
